<svg width="185" height="23" viewBox="0 0 185 23" fill="none" xmlns="http://www.w3.org/2000/svg">
<g clip-path="url(#clip0_25_26)">
<path d="M45.5937 14.8459C45.5937 17.1404 44.7467 19.0753 43.0537 20.6443C41.3606 22.2168 39.2313 23.0004 36.6703 23.0004C34.1094 23.0004 31.981 22.2168 30.2879 20.6443C28.5939 19.0753 27.7469 17.1404 27.7469 14.8459C27.7469 12.5495 28.5939 10.6093 30.2879 9.0287C31.981 7.44902 34.1094 6.65918 36.6703 6.65918C39.2313 6.65918 41.3606 7.44902 43.0537 9.0287C44.7467 10.6093 45.5937 12.5495 45.5937 14.8459ZM32.4829 14.8459C32.4829 16.1399 32.8755 17.1949 33.6597 18.0106C34.444 18.8245 35.4469 19.2315 36.6703 19.2315C37.8938 19.2315 38.8976 18.8245 39.6818 18.0106C40.4652 17.1949 40.8578 16.1399 40.8578 14.8459C40.8578 13.5491 40.4652 12.4888 39.6818 11.6651C38.8976 10.8404 37.8938 10.429 36.6703 10.429C35.4469 10.429 34.444 10.8404 33.6597 11.6651C32.8755 12.4888 32.4829 13.5491 32.4829 14.8459Z" fill="#FB088C"/>
<path d="M57.2745 10.8102C55.8724 10.8102 54.8277 11.277 54.1375 12.2096C53.4474 13.1423 53.1033 14.3748 53.1033 15.9054V22.7667H48.3987V6.92351H53.1033V9.01369C53.7098 8.36575 54.4683 7.81688 55.3771 7.3644C56.2878 6.9137 57.2128 6.67719 58.1529 6.65845L58.1843 10.8094H57.2745V10.8102Z" fill="#FB088C"/>
<path d="M65.8101 22.7659H61.1055V0.915405H65.8101V12.1347L71.0489 6.89321H76.976L70.546 13.3128L77.2269 22.765H71.644L67.3463 16.698L65.8091 18.2009V22.7659H65.8101Z" fill="#FB088C"/>
<path d="M102.782 14.2267V22.765H98.0782V0.915405H102.782V8.68977C104.204 7.33499 105.798 6.65849 107.564 6.65849C109.331 6.65849 110.821 7.24752 112.034 8.4247C113.246 9.60188 113.853 11.1735 113.853 13.1361V22.765H109.149V14.108C109.149 11.6742 108.196 10.456 106.293 10.456C105.353 10.456 104.532 10.7746 103.831 11.4136C103.132 12.0526 102.782 12.9897 102.782 14.2267Z" fill="#FB088C"/>
<path d="M134.324 14.8459C134.324 17.1404 133.477 19.0753 131.784 20.6443C130.09 22.2168 127.961 23.0004 125.401 23.0004C122.839 23.0004 120.711 22.2168 119.017 20.6443C117.324 19.0753 116.477 17.1404 116.477 14.8459C116.477 12.5495 117.324 10.6093 119.017 9.0287C120.711 7.44902 122.839 6.65918 125.401 6.65918C127.961 6.65918 130.09 7.44902 131.784 9.0287C133.477 10.6093 134.324 12.5495 134.324 14.8459ZM121.214 14.8459C121.214 16.1399 121.606 17.1949 122.391 18.0106C123.172 18.8245 124.178 19.2315 125.401 19.2315C126.624 19.2315 127.627 18.8245 128.412 18.0106C129.195 17.1949 129.587 16.1399 129.587 14.8459C129.587 13.5491 129.195 12.4888 128.412 11.6651C127.627 10.8404 126.624 10.429 125.401 10.429C124.178 10.429 123.172 10.8404 122.391 11.6651C121.606 12.4888 121.214 13.5491 121.214 14.8459Z" fill="#FB088C"/>
<path d="M141.788 22.7659H137.083V0.915405H141.788V22.7659Z" fill="#FB088C"/>
<path d="M162.256 19.0844C163.823 19.0844 165.236 18.3481 166.491 16.8755L169.282 19.8198C167.107 21.9412 164.754 22.9997 162.225 22.9997C159.694 22.9997 157.556 22.2491 155.81 20.748C154.065 19.245 153.192 17.2834 153.192 14.8594C153.192 12.4346 154.076 10.4631 155.842 8.93962C157.608 7.41973 159.704 6.65845 162.13 6.65845C163.342 6.65845 164.572 6.89406 165.816 7.3644C167.059 7.83652 168.152 8.53354 169.093 9.45547L166.647 12.4595C166.104 11.85 165.439 11.3796 164.654 11.0459C163.871 10.7121 163.091 10.5443 162.319 10.5443C161.083 10.5443 160.024 10.9227 159.135 11.6786C158.244 12.4337 157.802 13.4841 157.802 14.8291C157.802 16.174 158.245 17.2182 159.135 17.9652C160.024 18.7131 161.065 19.0844 162.256 19.0844Z" fill="#FB088C"/>
<path d="M10.604 22.7504H5.74073L0 6.9054H4.86237L8.15623 16.4772L11.4501 6.9054H15.9997L19.2926 16.4772L22.5874 6.9054H27.4821L21.7404 22.7504H16.8467L13.7401 14.1202L10.604 22.7504Z" fill="#FB088C"/>
<path d="M185 17.8661C185 19.4261 184.388 20.6765 183.164 21.6207C181.942 22.5632 180.39 23.0335 178.507 23.0335C177.254 23.0335 175.946 22.8229 174.587 22.3999C173.227 21.9777 172.004 21.3548 170.917 20.531L172.988 17.7635C176.137 20.1267 180.577 20.3347 180.577 18.4391C180.577 15.858 171.984 16.7398 171.984 11.6527C171.984 8.97258 174.391 6.69141 178.727 6.69141C180.715 6.69141 182.701 7.31971 184.687 8.57453L182.932 11.5197C180.219 9.59642 176.376 9.57767 176.376 11.2261C176.375 13.6135 185 12.4157 185 17.8661Z" fill="#FB088C"/>
<path d="M148.018 5.05556C149.442 5.05556 150.596 3.97231 150.596 2.63606C150.596 1.2998 149.442 0.216553 148.018 0.216553C146.595 0.216553 145.441 1.2998 145.441 2.63606C145.441 3.97231 146.595 5.05556 148.018 5.05556Z" fill="#FB088C"/>
<path d="M150.371 22.7659H145.668V6.92358H150.371V22.7659Z" fill="#FB088C"/>
<path d="M89.6505 5.05556C91.0737 5.05556 92.2275 3.97231 92.2275 2.63606C92.2275 1.2998 91.0737 0.216553 89.6505 0.216553C88.2272 0.216553 87.0734 1.2998 87.0734 2.63606C87.0734 3.97231 88.2272 5.05556 89.6505 5.05556Z" fill="#FB088C"/>
<path d="M83.0792 5.05556C84.5025 5.05556 85.6563 3.97231 85.6563 2.63606C85.6563 1.2998 84.5025 0.216553 83.0792 0.216553C81.6559 0.216553 80.5021 1.2998 80.5021 2.63606C80.5021 3.97231 81.6559 5.05556 83.0792 5.05556Z" fill="#FB088C"/>
<path d="M95.2809 14.8459C95.2809 17.1404 94.432 19.0753 92.7399 20.6443C91.0469 22.2168 88.9175 23.0004 86.3575 23.0004C83.7956 23.0004 81.6682 22.2168 79.9742 20.6443C78.2812 19.0753 77.4351 17.1404 77.4351 14.8459C77.4351 12.5495 78.2821 10.6093 79.9742 9.0287C81.6682 7.44902 83.7956 6.65918 86.3575 6.65918C88.9185 6.65918 91.0469 7.44902 92.7399 9.0287C94.433 10.6093 95.2809 12.5495 95.2809 14.8459ZM82.1711 14.8459C82.1711 16.1399 82.5637 17.1949 83.347 18.0106C84.1312 18.8245 85.1351 19.2315 86.3575 19.2315C87.58 19.2315 88.5848 18.8245 89.3691 18.0106C90.1533 17.1949 90.545 16.1399 90.545 14.8459C90.545 13.5491 90.1533 12.4888 89.3691 11.6651C88.5848 10.8413 87.581 10.429 86.3575 10.429C85.1341 10.429 84.1312 10.8404 83.347 11.6651C82.5637 12.4888 82.1711 13.5491 82.1711 14.8459Z" fill="#FB088C"/>
</g>
<defs>
<clipPath id="clip0_25_26">
<rect width="185" height="23" fill="white"/>
</clipPath>
</defs>
</svg>
